REM DIRINDEX 1\6,1\2\7,1\2\8,1\2\9,1\3\10,1\3\11,1\4\12,1\4\13,1\4\14,1\5\15,1\5\16,1\5\17
REM DIRNAME folder01,folder02,folder03,folder04,folder05,folder06,folder07,folder08,folder09,folder10,folder11,folder12,folder13,folder14,folder15,folder16,folder17
TITLE ""
FILE "P2Q_k_021-030.mp3" MP3
  TRACK 01 AUDIO
    TITLE "15:cjc040_1329"
    INDEX 01 00:00:00
  TRACK 02 AUDIO
    TITLE "0:"
    INDEX 01 00:01:52
  TRACK 03 AUDIO
    TITLE "16:cjc040_1330"
    INDEX 01 00:02:24
  TRACK 04 AUDIO
    TITLE "0:"
    INDEX 01 00:04:29
  TRACK 05 AUDIO
    TITLE "17:cjc040_1331"
    INDEX 01 00:05:01
  TRACK 06 AUDIO
    TITLE "17:cjc040_1332"
    INDEX 01 00:08:32
  TRACK 07 AUDIO
    TITLE "0:"
    INDEX 01 00:11:27
  TRACK 08 AUDIO
    TITLE "15:cjc040_1333"
    INDEX 01 00:12:07
  TRACK 09 AUDIO
    TITLE "0:"
    INDEX 01 00:13:61
  TRACK 10 AUDIO
    TITLE "16:cjc040_1334"
    INDEX 01 00:14:37
  TRACK 11 AUDIO
    TITLE "0:"
    INDEX 01 00:16:49
  TRACK 12 AUDIO
    TITLE "17:cjc040_1335"
    INDEX 01 00:17:25
  TRACK 13 AUDIO
    TITLE "17:cjc040_1336"
    INDEX 01 00:20:00
  TRACK 14 AUDIO
    TITLE "0:"
    INDEX 01 00:22:60
  TRACK 15 AUDIO
    TITLE "15:cjc040_1337"
    INDEX 01 00:23:40
  TRACK 16 AUDIO
    TITLE "0:"
    INDEX 01 00:25:27
  TRACK 17 AUDIO
    TITLE "16:cjc040_1338"
    INDEX 01 00:26:09
  TRACK 18 AUDIO
    TITLE "0:"
    INDEX 01 00:28:04
  TRACK 19 AUDIO
    TITLE "17:cjc040_1339"
    INDEX 01 00:28:57
  TRACK 20 AUDIO
    TITLE "17:cjc040_1340"
    INDEX 01 00:30:36
  TRACK 21 AUDIO
    TITLE "0:"
    INDEX 01 00:34:30
  TRACK 22 AUDIO
    TITLE "15:cjc040_1341"
    INDEX 01 00:35:10
  TRACK 23 AUDIO
    TITLE "0:"
    INDEX 01 00:36:38
  TRACK 24 AUDIO
    TITLE "16:cjc040_1342"
    INDEX 01 00:37:20
  TRACK 25 AUDIO
    TITLE "0:"
    INDEX 01 00:39:13
  TRACK 26 AUDIO
    TITLE "17:cjc040_1343"
    INDEX 01 00:39:60
  TRACK 27 AUDIO
    TITLE "17:cjc040_1344"
    INDEX 01 00:42:49
  TRACK 28 AUDIO
    TITLE "0:"
    INDEX 01 00:46:11
  TRACK 29 AUDIO
    TITLE "15:cjc040_1345"
    INDEX 01 00:46:58
  TRACK 30 AUDIO
    TITLE "0:"
    INDEX 01 00:48:22
  TRACK 31 AUDIO
    TITLE "16:cjc040_1346"
    INDEX 01 00:49:00
  TRACK 32 AUDIO
    TITLE "0:"
    INDEX 01 00:50:64
  TRACK 33 AUDIO
    TITLE "17:cjc040_1347"
    INDEX 01 00:51:46
  TRACK 34 AUDIO
    TITLE "17:cjc040_1348"
    INDEX 01 00:53:31
  TRACK 35 AUDIO
    TITLE "0:"
    INDEX 01 00:56:74
  TRACK 36 AUDIO
    TITLE "15:cjc040_1349"
    INDEX 01 00:57:54
  TRACK 37 AUDIO
    TITLE "0:"
    INDEX 01 00:59:12
  TRACK 38 AUDIO
    TITLE "16:cjc040_1350"
    INDEX 01 00:59:65
  TRACK 39 AUDIO
    TITLE "0:"
    INDEX 01 01:01:72
  TRACK 40 AUDIO
    TITLE "17:cjc040_1351"
    INDEX 01 01:02:44
  TRACK 41 AUDIO
    TITLE "17:cjc040_1352"
    INDEX 01 01:05:71
  TRACK 42 AUDIO
    TITLE "0:"
    INDEX 01 01:09:42
  TRACK 43 AUDIO
    TITLE "15:cjc040_1353"
    INDEX 01 01:10:22
  TRACK 44 AUDIO
    TITLE "0:"
    INDEX 01 01:11:56
  TRACK 45 AUDIO
    TITLE "16:cjc040_1354"
    INDEX 01 01:12:36
  TRACK 46 AUDIO
    TITLE "0:"
    INDEX 01 01:13:67
  TRACK 47 AUDIO
    TITLE "17:cjc040_1355"
    INDEX 01 01:14:43
  TRACK 48 AUDIO
    TITLE "17:cjc040_1356"
    INDEX 01 01:17:16
  TRACK 49 AUDIO
    TITLE "0:"
    INDEX 01 01:18:72
  TRACK 50 AUDIO
    TITLE "15:cjc040_1357"
    INDEX 01 01:19:50
  TRACK 51 AUDIO
    TITLE "0:"
    INDEX 01 01:21:33
  TRACK 52 AUDIO
    TITLE "16:cjc040_1358"
    INDEX 01 01:22:11
  TRACK 53 AUDIO
    TITLE "0:"
    INDEX 01 01:23:67
  TRACK 54 AUDIO
    TITLE "17:cjc040_1359"
    INDEX 01 01:24:43
  TRACK 55 AUDIO
    TITLE "17:cjc040_1360"
    INDEX 01 01:26:58
  TRACK 56 AUDIO
    TITLE "0:"
    INDEX 01 01:30:30
  TRACK 57 AUDIO
    TITLE "15:cjc040_1361"
    INDEX 01 01:31:08
  TRACK 58 AUDIO
    TITLE "0:"
    INDEX 01 01:32:59
  TRACK 59 AUDIO
    TITLE "16:cjc040_1362"
    INDEX 01 01:33:36
  TRACK 60 AUDIO
    TITLE "0:"
    INDEX 01 01:34:73
  TRACK 61 AUDIO
    TITLE "17:cjc040_1363"
    INDEX 01 01:35:55
  TRACK 62 AUDIO
    TITLE "17:cjc040_1364"
    INDEX 01 01:38:61
  TRACK 63 AUDIO
    TITLE "0:"
    INDEX 01 01:41:40
  TRACK 64 AUDIO
    TITLE "15:cjc040_1365"
    INDEX 01 01:42:14
  TRACK 65 AUDIO
    TITLE "0:"
    INDEX 01 01:44:28
  TRACK 66 AUDIO
    TITLE "16:cjc040_1366"
    INDEX 01 01:45:10
  TRACK 67 AUDIO
    TITLE "0:"
    INDEX 01 01:47:66
  TRACK 68 AUDIO
    TITLE "17:cjc040_1367"
    INDEX 01 01:48:40
  TRACK 69 AUDIO
    TITLE "17:cjc040_1368"
    INDEX 01 01:52:53
  TRACK 70 AUDIO
    TITLE "0:"
    INDEX 01 01:55:24
